<svg xmlns="http://www.w3.org/2000/svg" xmlns:xlink="http://www.w3.org/1999/xlink" width="373" height="125" viewBox="0 0 373 125">
  <defs>
    <clipPath id="clip-LogoNew">
      <rect width="373" height="125"/>
    </clipPath>
  </defs>
  <g id="LogoNew" clip-path="url(#clip-LogoNew)">
    <g id="Group_302" data-name="Group 302" transform="translate(-252.103 -707.713)">
      <g id="Group_126" data-name="Group 126" transform="translate(252.103 708.275)">
        <g id="Group_125" data-name="Group 125">
          <path id="Path_211" data-name="Path 211" d="M342.814,815.49c-26.706,0-46.071-20-46.071-46.071s19.365-46.071,46.071-46.071a46.207,46.207,0,0,1,20.509,4.722v-3.493a16.279,16.279,0,0,0-24.418-14.1l-39.331,22.708L260.242,755.9a16.278,16.278,0,0,0,0,28.2L299.573,806.8,338.9,829.508a16.279,16.279,0,0,0,24.418-14.1v-4.6A46.457,46.457,0,0,1,342.814,815.49Z" transform="translate(-252.103 -708.275)" fill="#632a93"/>
          <path id="Path_212" data-name="Path 212" d="M430.962,790.274c-3.924-6.834-11.518-10.885-20.5-10.885-15.695,0-25.82,10.505-25.82,26.326s10.126,26.326,25.82,26.326c8.986,0,16.707-4.05,20.5-10.885l.005,0V790.271Z" transform="translate(-319.747 -744.571)" fill="#632a93"/>
        </g>
      </g>
      <path id="Path_607" data-name="Path 607" d="M34.533,10.955H30.893V-10.016q0-2.485.305-6.082h-.087a19.445,19.445,0,0,1-.937,3.03L19.492,10.955H17.7L7.044-12.894a18.684,18.684,0,0,1-.937-3.2H6.019q.174,1.875.174,6.126V10.955H2.662V-20.306H7.5l9.592,21.8a27.913,27.913,0,0,1,1.439,3.75h.131q.937-2.572,1.5-3.837l9.788-21.713h4.578Zm17.069.523A10.354,10.354,0,0,1,43.7,8.35,11.587,11.587,0,0,1,40.746.055q0-5.624,3.074-8.785a11.05,11.05,0,0,1,8.306-3.161,10.012,10.012,0,0,1,7.793,3.074q2.8,3.074,2.8,8.524A11.993,11.993,0,0,1,59.7,8.263,10.579,10.579,0,0,1,51.6,11.478Zm.262-20.361a6.8,6.8,0,0,0-5.45,2.343A9.625,9.625,0,0,0,44.409-.075a9.1,9.1,0,0,0,2.027,6.257A6.89,6.89,0,0,0,51.864,8.47a6.536,6.536,0,0,0,5.33-2.245A9.744,9.744,0,0,0,59.058-.163a9.911,9.911,0,0,0-1.864-6.453A6.507,6.507,0,0,0,51.864-8.883ZM80.073-7.749a4.372,4.372,0,0,0-2.7-.719A4.562,4.562,0,0,0,73.544-6.31,9.978,9.978,0,0,0,72.007-.424V10.955H68.432V-11.368h3.575v4.6h.087a7.8,7.8,0,0,1,2.333-3.673,5.319,5.319,0,0,1,3.51-1.319,5.837,5.837,0,0,1,2.136.305ZM101.895.688H86.133a8.349,8.349,0,0,0,2.006,5.755A6.914,6.914,0,0,0,93.415,8.47a10.968,10.968,0,0,0,6.932-2.485V9.342a12.956,12.956,0,0,1-7.783,2.136,9.435,9.435,0,0,1-7.434-3.041q-2.7-3.041-2.7-8.556A12.206,12.206,0,0,1,85.381-8.61a9.471,9.471,0,0,1,7.336-3.281A8.392,8.392,0,0,1,99.5-9.057q2.4,2.834,2.4,7.87Zm-3.662-3.03A7.274,7.274,0,0,0,96.739-7.16a5.088,5.088,0,0,0-4.087-1.722,5.775,5.775,0,0,0-4.295,1.809,8.211,8.211,0,0,0-2.18,4.731Zm37.6-17.954h-2.991L121.675-1.814,110.513-20.3h-2.947V10.955h2.366v-27.77L121.5,2.383h.4l11.563-19.2v27.77h2.366Zm17.546,31.743A11.558,11.558,0,0,0,165.07-.206a11.558,11.558,0,0,0-11.7-11.653A11.568,11.568,0,0,0,141.631-.206,11.568,11.568,0,0,0,153.373,11.446Zm0-2.143a9.4,9.4,0,0,1-9.465-9.51,9.4,9.4,0,0,1,9.465-9.51,9.358,9.358,0,0,1,9.42,9.51A9.358,9.358,0,0,1,153.373,9.3Zm27.279-21.162a8.407,8.407,0,0,0-7.992,4.732v-4.241h-2.232V10.955h2.232V-.831c0-6.027,3.438-8.885,7.813-8.885,4.2,0,6.563,2.679,6.563,6.786V10.955h2.277V-2.93C189.313-8.332,185.965-11.859,180.652-11.859Zm25,0A11.26,11.26,0,0,0,194.09-.206a11.279,11.279,0,0,0,11.742,11.653A11,11,0,0,0,215.565,6.4L213.6,5.241c-1.295,2.366-4.063,4.063-7.724,4.063A9.087,9.087,0,0,1,196.412.955h20.225c0-.357.045-.714.045-1.072C216.681-6.233,212.44-11.859,205.653-11.859Zm0,2.143c4.375,0,8.215,3.036,8.706,8.483H196.412A9,9,0,0,1,205.653-9.716Zm31.7-1.652L229.584,8.5l-9.018-19.867h-2.411l10.269,22.725-.491,1.205c-1.384,3.259-3.661,5.491-6.652,5.224v2.1c3.84.313,7.143-2.589,8.84-6.875l9.644-24.377Z" transform="translate(382.846 770.641)" fill="#632a93" stroke="#5f288e" stroke-linecap="round" stroke-width="2"/>
    </g>
  </g>
</svg>
